<svg xmlns="http://www.w3.org/2000/svg" viewBox="0 0 288 96" id="supermarket-default" aria-hidden="true" role="none" data-supported-dps="288x96">
  <path fill="#e4eff1" d="M0 0h288v96H0z"/>
  <path d="M227 0h61v32h-56a5 5 0 01-5-5z" fill="#cfdee0"/>
  <path fill="#d0ddea" d="M1 0h151v86H1z"/>
  <path fill="#e7eef5" d="M95 0h51v86H95zM33 0h51v86H33zM0 0h22v86H0z"/>
  <path fill="#b4c6d9" d="M89 0h1v86h-1zM27 0h1v86h-1z"/>
  <path fill="#fff" d="M95 7h51v4H95zM95 28h51v4H95zM95 49h51v4H95zM95 70h51v4H95zM33 7h51v4H33zM33 28h51v4H33zM33 49h51v4H33zM33 70h51v4H33zM0 7h22v4H0zM0 28h22v4H0zM0 49h22v4H0zM0 70h22v4H0z"/>
  <path fill="#fcd59d" d="M95 3h13v4H95z"/>
  <path fill="#bedfff" d="M113 0h13v7h-13z"/>
  <path fill="#f6f9fc" d="M124 21h22v7h-22z"/>
  <path fill="#f9d3c8" d="M130 37h16v12h-16z"/>
  <path fill="#fbebd3" d="M121 58h25v12h-25z"/>
  <path fill="#d0ddea" d="M95 62h23v8H95zM100 39h25v10h-25z"/>
  <path fill="#f6f9fc" d="M95 17h22v11H95z"/>
  <path fill="#fff" d="M33 21h14v7H33zM54 16h19v12H54z"/>
  <path fill="#b4c6d9" d="M131 0h15v7h-15z"/>
  <path fill="#f9d3c8" d="M33 0h18v7H33z"/>
  <path fill="#f6f9fc" d="M57 0h18v7H57zM33 42h18v7H33zM53 42h18v7H53z"/>
  <path fill="#d0ddea" d="M44 60h22v10H44zM0 18h10v10H0z"/>
  <path fill="#fcd59d" d="M5 42h17v7H5z"/>
  <path fill="#fff" d="M0 59h17v11H0z"/>
  <path fill="#f6f9fc" d="M13 16h9v12h-9z"/>
  <path fill="#bedfff" d="M7 0h10v7H7z"/>
  <path fill="#b5c8ca" d="M238 0h12v16h-12z"/>
  <path fill="#e7eef5" d="M255 13h13v12h-13z"/>
  <path fill="#f6f9fc" d="M263 3h12v10h-12z"/>
  <path d="M38 86H24c-4-10-5-20 3-28h8c8 8 7 18 3 28z" fill="#fff"/>
  <path fill="#f38d70" d="M36 52l-1 6h-8l-1-6h10z"/>
  <ellipse cx="34.84" cy="67.03" rx="2.21" ry="4.87" transform="rotate(-15 34.831 67.062)" fill="#e7eef5"/>
  <path d="M29.4 68c2.22 6.26 6.3 8 8.6 8a13.83 13.83 0 01-2 7H26c-2.27-5.68-2.61-10.71-1.74-14.73A2.68 2.68 0 0129.4 68z" fill="#c9e3bc"/>
  <path fill="#13707e" d="M33 79h27v7H33z"/>
  <path fill="#788a8d" d="M116 72h10v14h-10z"/>
  <path fill="#b5c8ca" d="M116 70h10v2h-10z"/>
  <path d="M116 75a4 4 0 010 8z" fill="#5b696b"/>
  <path d="M17 73.22V86H9V73.22a2.29 2.29 0 011-1.9l1-.64a2.29 2.29 0 001-1.9V66h2v2.78a2.29 2.29 0 001 1.9l1 .64a2.29 2.29 0 011 1.9z" fill="#915907"/>
  <path fill="#bd7813" d="M0 80h13v6H0zM288 72h-16l3 14h13V72z"/>
  <path fill="#fff" d="M143 62v24h-12V62l5-5v-3h2v3l5 5z"/>
  <path fill="#dfefff" d="M131 67h5v16h-5z"/>
  <path d="M169.05 80l-22.87-4.6-3.76-3.56a1.9 1.9 0 00-1-.52l-2.42-.55a1 1 0 000 1.92l2.09 1.07A5.87 5.87 0 00143 78.3v2.3l26.05 9.13zM199.73 39.62c-2 3.55-2.36 7.67-.74 10.22L186 62V48s-3.39-.49-4.19-.53a3.14 3.14 0 01-2.81-3.36s-.3-2.73-.3-3.47a2.38 2.38 0 00-.73-1.56c-.23-.25-.68-.66-.35-1.26a17 17 0 001.8-5.95 11.2 11.2 0 0112.09-9.77z" fill="#f0c59f"/>
  <path d="M198.43 48.71c-3.09 3.84-8.45 3.13-8.45 3.13L186 59v-8l-9 5.5c-6.5 3.9-7.53 11.5-7.53 11.5l-3 18.59L213 85c5.54-18.36 1-27.48-5.13-30.86s-9.44-5.43-9.44-5.43z" fill="#738f65"/>
  <path d="M201.08 50.3C196.82 62.51 197 64 192 64h-6c-5 0-5-4.46-4-10.54l-3.51 2.15c-.2 12.24-5.34 15-4.47 19.52s1.2 9.13-.1 11.27l26.6.23c-1.56-13.6 1-30.12 3.62-34.57z" fill="#13707e"/>
  <path d="M207 47a12 12 0 01-8.3-5 9.92 9.92 0 00-.54 1.86s-2.29-1.66-1.61-6a2.6 2.6 0 00-2-3.11 2.32 2.32 0 00-.59-.07A12.59 12.59 0 01192 41c0-5.87-7.24-7.67-8.73-15 0 5.31-3.69 5-3.69 5 1.09-6 7.38-14.11 17.18-7.57 1.6-2.35 4.74-3.47 7.22-1.14 3 2.81 2.53 6.93.62 11.58S202.52 45.26 207 47z" fill="#1c2024"/>
  <path d="M190 51.84a10.46 10.46 0 011.52 6s6.46-1.6 9.58-7.52l-2.65-1.59a17.21 17.21 0 01-8.45 3.11zM186 51l-2.03 5.27-1.98-2.81L186 51z" fill="#92b182"/>
  <path fill="#8344cc" d="M167.68 79.74l-16.74-1.44-4.67-8.38 3.51-19.21 22.44 4.1-4.54 24.93z"/>
  <path fill="#38434f" d="M147.853 61.239l.54-2.952 22.438 4.102-.54 2.952z"/>
  <path fill="#fbebd3" d="M153.012 64.883l1.507-8.243 11.106 2.03-1.507 8.243z"/>
  <path d="M146.27 69.92c5.75 1 3.68 7 7.62 7.68s7.92-10.32 15.79-8.93l-3.05 17.27-22.65-4z" fill="#c194f5"/>
  <path d="M213 85l-2.46 9.27-33.35-12.48a21.79 21.79 0 00-2.95-1l-6.57-1.08c-1.09-.16-.75-1.5-.75-1.5l-1.44.09a1 1 0 11-.12-2h-1.73c-1.31 0-1.5-1.48-.21-1.8l1.91-.46h-4.6c-1.17 0-1.41-1.49-.11-1.59l8.57-1.17.36-2s5.42 5.11 9 6.07L200 80.07z" fill="#f0c59f"/>
  <path d="M209 41h9v27h-9a2 2 0 01-2-2V43a2 2 0 012-2z" fill="#b4c6d9"/>
  <path fill="#ccc3b5" d="M0 86h288v10H0z"/>
  <rect x="210" y="41" width="38" height="27" rx="2" ry="2" fill="#9ae8f4"/>
  <path d="M229 52a3 3 0 013 3v30h-6V55a3 3 0 013-3z" fill="#b4c6d9"/>
  <path d="M237.68 47h23.64a1.68 1.68 0 011.68 1.68V54h-27v-5.32a1.68 1.68 0 011.68-1.68z" fill="#56687a"/>
  <path d="M236 54h27v.32a1.68 1.68 0 01-1.68 1.68h-23.64a1.68 1.68 0 01-1.68-1.68z" fill="#7389a0"/>
  <path d="M252 56v4.72a1.28 1.28 0 01-1.28 1.28h.28v24h-30v-8h27V62h-.72a1.28 1.28 0 01-1.28-1.28V56z" fill="#95abc1"/>
  <path fill="#7389a0" d="M217 78h5v8h-5z"/>
  <path d="M107.41 57.36a2.63 2.63 0 00.26-2.7c-.45-.77-2-6-1.87-7.31s.07-2.57.81-2.23 1 1.83 1 1.83.66 2.61 1.4 2.56 1-1.25 1.34-2.51 1.33-4.9 1.6-5.91 1.57-1 1.42.27-1.15 6.48-1.15 6.48l2.4-6.68c.51-1.47 1.93-1 1.5.42s-2 6.92-2 6.92l2.33-5.5c.5-1.09 1.75-.74 1.34.5s-2.07 6.36-2.07 6.36S117 47 117.51 46s1.68-.28 1.26.71-2.1 5.65-2.27 6.28a11.59 11.59 0 01-1.41 3c-.56.71-3.4 6-3.4 6zM73.37 18.37A11.11 11.11 0 0186 27.73v.07a10.64 10.64 0 01.11 1.95v.06a11.24 11.24 0 001 4.78c.25.51.57 1.22-.23 1.78a1.31 1.31 0 00-.6.93l-.57 3c-.37 2.08-1.64 3.07-3.06 3a3.67 3.67 0 00-3.79 2.62l-.68 2.23L64 47c1-1 5.4-4.54 1.43-11.73z" fill="#7f472d"/>
  <path d="M82.87 21.41a2.08 2.08 0 01-1.61.45c-.92-.27-2 .19-1.4 1.72s-.53 1.66-.29 2.6 1.07 1.25 1.12 2.5-1.09 1.67-1.15 3.78a2.42 2.42 0 00-2.2-2.33 2.53 2.53 0 00-2.23 2.75c0 5-4.31 7.12-8.11 7.12a3.79 3.79 0 00-1.56-2.6 2.4 2.4 0 01-1.11-1.77c0-.32.16-.93-.31-1.3s-.78-.92-.64-2.42-.53-1.35-.69-2.56a4.19 4.19 0 01.58-2.56c.31-.78-.58-2.24 0-3.29s1.35-1.2 2.45-2.09.58-2.25 1.93-2.87 1.91.08 3-.42.83-1.74 2.2-2 1.79.64 3 .74 1.56-.53 2.52-.37 1 1.79 3 1.79c2.34-.01 2.38 2.03 1.5 3.13z" fill="#1c2024"/>
  <path d="M63.06 48.12c4.86-7.1 14-5 20.74.45zM107 58l.7-1.21c6.25.54 7.39 5.61 7.39 5.61z" fill="#be5d41"/>
  <path d="M62.66 48.12C70.21 43 91 48 95 57l3 33a14.64 14.64 0 01-1 6H56c-6-17-5.34-39.88 6.66-47.88z" fill="#e09a33"/>
  <path d="M95 57l5 13 7-12c8 2 9 6 9 6-5 20-18 26-18 26-5 2.78-9.55-3.3-11.7-11.25s-3-9.82-4.87-18.7S91.76 48 95 57z" fill="#f0aa43"/>
</svg>
